<svg xmlns="http://www.w3.org/2000/svg" width="100" height="100" viewBox="0 0 105 105" fill="none"><g opacity="0.85" clip-path="url(#clip0_646_6055)"><path d="M105 52.5C105 81.4597 81.4597 105 52.5 105C23.5403 105 0 81.4597 0 52.5C0 23.5403 23.5403 0 52.5 0C81.4597 0 105 23.5403 105 52.5Z" fill="#F30122"></path><path d="M52.5 0C81.4597 0 105 23.5403 105 52.5C105 81.4597 81.4597 105 52.5 105" fill="#D6012F"></path><path d="M15.4113 15.4113C35.9032 -5.08063 69.0968 -5.08063 89.5887 15.4113C110.081 35.9032 110.081 69.0968 89.5887 89.5887" fill="#F30122"></path><path d="M45.0484 76.379C44.7097 76.379 44.2016 76.2097 43.8629 76.0403C43.0161 75.7016 42.3387 74.6855 42.3387 73.8387V42.1694C42.3387 41.3226 43.0161 40.3065 43.8629 39.9677C44.7097 39.629 45.7258 39.629 46.5726 40.1371L68.0807 56.0565C68.7581 56.5645 69.0968 57.2419 69.0968 58.0887C69.0968 58.9355 68.7581 59.6129 68.0807 60.121L46.5726 76.0403C46.0645 76.2097 45.5565 76.379 45.0484 76.379Z" fill="#C30142"></path><path d="M45.0484 70.7903C44.7097 70.7903 44.2016 70.6209 43.8629 70.4516C43.0161 70.1129 42.3387 69.0967 42.3387 68.25V36.5806C42.3387 35.7338 43.0161 34.7177 43.8629 34.379C44.7097 34.0403 45.7258 34.0403 46.5726 34.5484L68.0807 50.4677C68.7581 50.9758 69.0968 51.6532 69.0968 52.5C69.0968 53.3467 68.7581 54.0242 68.0807 54.5322L46.5726 70.4516C46.0645 70.6209 45.5565 70.7903 45.0484 70.7903Z" fill="white"></path></g><defs><clipPath id="clip0_646_6055"><rect width="105" height="105" fill="white"></rect></clipPath></defs></svg>