<svg xmlns="http://www.w3.org/2000/svg" width="308" height="57" viewBox="0 0 308 57" fill="none"><path d="M1.94915 33.3118C4.53464 34.6363 8.50173 35.9607 12.6121 35.9607C17.0264 35.9607 19.3596 34.1317 19.3596 31.3624C19.3596 28.7135 17.3417 27.1941 12.228 25.3651C5.16524 22.8997 0.561813 18.9895 0.561813 12.8087C0.561813 5.55006 6.62137 0 16.6423 0C21.4406 0 24.9663 1.0091 27.4945 2.14434L25.3504 9.90181C23.6478 9.08191 20.6208 7.88361 16.4588 7.88361C12.2968 7.88361 10.2789 9.77567 10.2789 11.9831C10.2789 14.7008 12.6752 15.8933 18.1672 17.9746C25.6714 20.7497 29.2028 24.6599 29.2028 30.6572C29.2028 37.7897 23.7166 43.8443 12.0446 43.8443C7.18892 43.8443 2.39631 42.5829 0 41.2585L1.95488 33.3118H1.94915Z" fill="url(#paint0_linear_681_2265)"></path><path d="M40.0493 30.8525C40.3646 34.8258 44.2743 36.7179 48.7516 36.7179C52.0365 36.7179 54.6793 36.2764 57.2706 35.4565L58.526 41.9526C55.373 43.214 51.5263 43.8504 47.3643 43.8504C36.8962 43.8504 30.8997 37.7958 30.8997 28.1405C30.8997 20.32 35.7611 11.6738 46.4814 11.6738C56.4508 11.6738 60.2344 19.4313 60.2344 27.0684C60.2344 28.7139 60.0452 30.1587 59.9191 30.8582H40.0493V30.8525ZM51.3371 24.2933C51.3371 21.9598 50.3281 18.0495 45.9139 18.0495C41.878 18.0495 40.2327 21.7075 39.9862 24.2933H51.3371Z" fill="url(#paint1_linear_681_2265)"></path><path d="M80.3564 43.214L79.7888 40.1179H79.5996C77.5817 42.5833 74.4287 43.9077 70.7711 43.9077C64.5281 43.9077 60.8076 39.3668 60.8076 34.4417C60.8076 26.4319 67.9965 22.5847 78.9117 22.6478V22.2063C78.9117 20.5665 78.0289 18.233 73.2993 18.233C70.1463 18.233 66.8041 19.3052 64.7804 20.5665L63.0147 14.3858C65.1587 13.1875 69.3838 11.6738 75.0019 11.6738C85.2866 11.6738 88.56 17.7284 88.56 24.9814V35.7088C88.56 38.6788 88.6861 41.5169 89.0014 43.2197H80.3621L80.3564 43.214ZM79.2213 28.6393C74.1764 28.5763 70.2667 29.7746 70.2667 33.4956C70.2667 35.9553 71.9062 37.1594 74.0503 37.1594C76.4466 37.1594 78.4015 35.5827 79.0264 33.6275C79.1582 33.123 79.2213 32.5554 79.2213 31.9877V28.6451V28.6393Z" fill="url(#paint2_linear_681_2265)"></path><path d="M92.9684 22.5217C92.9684 17.975 92.8423 15.0107 92.7162 12.3619H100.977L101.292 18.0438H101.545C103.121 13.5659 106.905 11.6738 109.869 11.6738C110.757 11.6738 111.193 11.6738 111.887 11.8V20.8245C111.193 20.6984 110.373 20.5723 109.301 20.5723C105.77 20.5723 103.373 22.4643 102.743 25.4286C102.617 26.0593 102.554 26.8161 102.554 27.5729V43.214H92.9627V22.5217H92.9684Z" fill="url(#paint3_linear_681_2265)"></path><path d="M136.429 42.4515C134.726 43.2141 131.51 43.8448 127.853 43.8448C117.889 43.8448 111.514 37.7902 111.514 28.0718C111.514 19.0473 117.694 11.6682 129.177 11.6682C131.699 11.6682 134.474 12.1097 136.492 12.8665L134.979 19.9933C133.843 19.4887 132.141 19.0473 129.618 19.0473C124.574 19.0473 121.294 22.6422 121.357 27.6877C121.357 33.3639 125.141 36.3281 129.813 36.3281C132.084 36.3281 133.849 35.9497 135.3 35.3821L136.435 42.4458L136.429 42.4515Z" fill="url(#paint4_linear_681_2265)"></path><path d="M138.573 0.694092H148.158V16.0198H148.29C149.299 14.6954 150.56 13.6863 152.074 12.8664C153.461 12.1096 155.29 11.6681 157.061 11.6681C163.178 11.6681 167.85 15.8937 167.85 25.1705V43.214H158.259V26.2427C158.259 22.2063 156.866 19.4313 153.278 19.4313C150.755 19.4313 149.179 21.0711 148.485 22.7739C148.233 23.4046 148.164 24.2245 148.164 24.9125V43.2082H138.579V0.694092H138.573Z" fill="url(#paint5_linear_681_2265)"></path><path d="M172.253 0.694092H181.781V19.4943H181.965C182.916 17.8546 183.92 16.3409 184.865 14.8272L194.519 0.694092H206.318L192.249 18.7949L207.074 43.214H195.849L185.433 24.8552L181.781 29.3331V43.2082H172.253V0.694092Z" fill="black"></path><path d="M216.837 4.8563C216.837 7.50519 214.819 9.64953 211.666 9.64953C208.634 9.64953 206.621 7.50519 206.685 4.8563C206.616 2.08127 208.634 0 211.729 0C214.814 0 216.768 2.08127 216.837 4.8563Z" fill="black"></path><path d="M216.522 12.3616H206.931V43.2137H216.522V12.3616Z" fill="black"></path><path d="M220.925 22.2064C220.925 18.3592 220.798 15.0797 220.672 12.362H228.996L229.443 16.5876H229.627C230.888 14.6324 234.041 11.6682 239.149 11.6682C245.455 11.6682 250.19 15.8365 250.19 24.9127V43.2084H240.599V26.111C240.599 22.1376 239.212 19.4257 235.744 19.4257C233.095 19.4257 231.513 21.2547 230.882 23.0206C230.63 23.5882 230.504 24.5343 230.504 25.4172V43.2084H220.913V22.2064H220.925Z" fill="black"></path><path d="M282.65 12.362C282.524 14.3171 282.398 16.9087 282.398 21.5127V38.7362C282.398 44.659 281.199 49.521 277.731 52.6114C274.326 55.5125 269.717 56.3955 265.176 56.3955C261.14 56.3955 256.852 55.5756 254.078 53.9989L255.975 46.746C257.924 47.8869 261.33 49.0795 264.93 49.0795C269.47 49.0795 272.938 46.6198 272.938 40.9436V38.9197H272.812C270.984 41.5055 268.014 42.9561 264.488 42.9561C256.852 42.9561 251.435 36.7696 251.435 27.8826C251.435 17.9751 257.867 11.6682 265.44 11.6682C269.665 11.6682 272.314 13.4972 273.89 16.02H274.016L274.337 12.362H282.661H282.65ZM272.812 24.9127C272.812 24.2877 272.755 23.6513 272.629 23.1467C271.924 20.624 270.101 18.9211 267.446 18.9211C263.978 18.9211 261.14 22.0746 261.14 27.6877C261.14 32.2917 263.416 35.8924 267.446 35.8924C269.912 35.8924 271.866 34.2526 272.497 31.9821C272.755 31.2884 272.812 30.2793 272.812 29.4536V24.9127Z" fill="black"></path><path d="M286.359 34.8259C288.13 35.8981 291.788 37.1595 294.625 37.1595C297.52 37.1595 298.724 36.1504 298.724 34.5679C298.724 32.997 297.784 32.2344 294.178 31.0361C287.815 28.886 285.355 25.423 285.413 21.765C285.413 16.02 290.331 11.6682 297.962 11.6682C301.562 11.6682 304.772 12.4881 306.67 13.4341L304.973 20.0621C303.58 19.3053 300.931 18.2962 298.283 18.2962C295.95 18.2962 294.625 19.2422 294.625 20.8189C294.625 22.2695 295.823 23.0263 299.607 24.3508C305.477 26.369 307.931 29.339 308 33.8799C308 39.6192 303.46 43.8505 294.625 43.8505C290.589 43.8505 286.995 42.9618 284.656 41.7005L286.359 34.8317V34.8259Z" fill="black"></path><defs><linearGradient id="paint0_linear_681_2265" x1="30.3598" y1="21.0612" x2="0.608936" y2="21.0612" gradientUnits="userSpaceOnUse"><stop stop-color="#F30122"></stop><stop offset="1" stop-color="#F30122"></stop></linearGradient><linearGradient id="paint1_linear_681_2265" x1="61.3965" y1="27.1302" x2="31.5114" y2="27.1302" gradientUnits="userSpaceOnUse"><stop stop-color="#F30122"></stop><stop offset="1" stop-color="#F30122"></stop></linearGradient><linearGradient id="paint2_linear_681_2265" x1="90.1183" y1="27.1578" x2="61.3955" y2="27.1578" gradientUnits="userSpaceOnUse"><stop stop-color="#F30122"></stop><stop offset="1" stop-color="#F30122"></stop></linearGradient><linearGradient id="paint3_linear_681_2265" x1="112.646" y1="26.8245" x2="93.1159" y2="26.8245" gradientUnits="userSpaceOnUse"><stop stop-color="#F30122"></stop><stop offset="1" stop-color="#F30122"></stop></linearGradient><linearGradient id="paint4_linear_681_2265" x1="137.482" y1="27.1246" x2="112.035" y2="27.1246" gradientUnits="userSpaceOnUse"><stop stop-color="#F30122"></stop><stop offset="1" stop-color="#F30122"></stop></linearGradient><linearGradient id="paint5_linear_681_2265" x1="169.01" y1="21.119" x2="139.183" y2="21.119" gradientUnits="userSpaceOnUse"><stop stop-color="#F30122"></stop><stop offset="1" stop-color="#F30122"></stop></linearGradient></defs></svg>